<?xml version="1.0" standalone="no"?>
<!DOCTYPE svg PUBLIC "-//W3C//DTD SVG 20010904//EN"
 "http://www.w3.org/TR/2001/REC-SVG-20010904/DTD/svg10.dtd">
<svg version="1.0" xmlns="http://www.w3.org/2000/svg"
 width="200.000000pt" height="200.000000pt" viewBox="0 0 200.000000 200.000000"
 preserveAspectRatio="xMidYMid meet">

<g transform="translate(0.000000,200.000000) scale(0.100000,-0.100000)"
fill="#000000" stroke="none">
<path d="M1025 1571 c-6 -5 -48 -29 -95 -53 -122 -63 -170 -96 -179 -121 -5
-12 -7 -23 -6 -25 1 -2 54 29 116 67 63 39 135 83 161 98 26 16 48 31 48 36 0
10 -34 9 -45 -2z"/>
<path d="M904 1551 c-23 -11 -60 -36 -83 -56 -37 -34 -59 -38 -28 -6 28 31
-58 -27 -93 -62 -64 -63 -85 -118 -85 -217 0 -70 4 -93 24 -130 13 -25 25 -46
26 -48 2 -2 25 9 52 24 l50 28 -26 56 c-37 78 -37 194 -1 264 14 27 33 50 43
52 17 2 118 61 127 74 3 4 19 14 35 23 42 23 9 21 -41 -2z"/>
<path d="M1047 1525 c-32 -19 -61 -35 -64 -35 -3 0 -62 -33 -130 -72 -99 -59
-123 -77 -123 -95 0 -20 11 -15 123 52 67 40 152 93 189 117 36 24 74 48 85
55 17 11 17 12 -2 12 -11 1 -46 -15 -78 -34z"/>
<path d="M1127 1514 c-20 -13 -64 -38 -97 -55 -66 -33 -290 -165 -303 -178 -4
-4 -5 -15 -2 -23 5 -12 37 4 153 74 229 139 312 192 312 201 0 13 -25 6 -63
-19z"/>
<path d="M1165 1478 c-27 -17 -79 -47 -115 -66 -175 -92 -320 -184 -320 -203
0 -10 3 -19 6 -19 10 0 227 131 249 150 11 10 73 49 137 87 65 38 115 73 111
76 -10 11 -14 9 -68 -25z"/>
<path d="M1210 1330 c-102 -62 -120 -76 -120 -90 0 -5 52 21 115 58 63 37 115
73 115 80 0 18 -7 15 -110 -48z"/>
<path d="M1205 1268 c-141 -84 -128 -74 -124 -87 2 -6 62 23 132 64 70 42 125
80 122 85 -4 6 -7 10 -8 10 -1 0 -56 -32 -122 -72z"/>
<path d="M855 1243 c-60 -36 -112 -66 -113 -68 -2 -2 0 -10 5 -19 7 -13 24 -6
106 43 112 67 120 73 115 94 -2 12 -30 -1 -113 -50z"/>
<path d="M1102 1150 c-186 -110 -229 -140 -216 -148 13 -7 38 4 108 49 50 32
148 92 219 134 70 43 127 83 127 91 0 8 -1 14 -2 13 -2 0 -108 -63 -236 -139z"/>
<path d="M853 1184 c-63 -38 -90 -60 -86 -70 3 -8 10 -14 17 -13 24 1 159 95
167 117 5 12 5 22 1 22 -4 -1 -48 -26 -99 -56z"/>
<path d="M1250 1178 c-36 -23 -99 -59 -140 -81 -107 -56 -192 -108 -186 -114
2 -3 34 -7 70 -10 l66 -5 83 55 c45 30 99 64 120 76 20 13 42 32 48 43 l11 21
-33 -20 c-101 -62 -155 -93 -161 -93 -4 0 -34 -16 -68 -36 -33 -20 -63 -35
-65 -32 -6 6 149 107 257 169 43 24 78 50 78 57 0 18 -8 15 -80 -30z"/>
<path d="M1168 1017 c-43 -22 -76 -43 -73 -45 6 -6 107 43 135 66 34 29 27 27
-62 -21z"/>
<path d="M808 976 c-21 -11 -37 -25 -35 -30 6 -18 82 -37 147 -38 41 0 82 7
110 19 l45 18 -66 6 c-36 4 -84 16 -107 28 -49 25 -47 25 -94 -3z"/>
<path d="M1234 778 c2 -18 4 -41 5 -51 1 -15 9 -18 54 -15 48 3 52 5 52 28 0
19 -5 25 -22 24 -18 0 -23 5 -23 23 0 13 -4 23 -10 23 -5 0 -10 -18 -10 -40 0
-29 -4 -40 -15 -40 -11 0 -15 11 -15 40 0 22 -4 40 -10 40 -5 0 -8 -15 -6 -32z
m96 -38 c0 -5 -7 -10 -16 -10 -8 0 -12 5 -9 10 3 6 10 10 16 10 5 0 9 -4 9
-10z"/>
<path d="M1362 763 l3 -48 58 -2 c44 -2 59 1 64 13 3 8 2 18 -2 22 -4 4 -10 1
-12 -5 -6 -16 -43 -17 -43 -1 0 9 -3 9 -12 0 -24 -24 -38 -13 -38 28 0 22 -5
40 -11 40 -6 0 -9 -19 -7 -47z"/>
<path d="M1530 760 c0 -27 5 -50 10 -50 6 0 10 23 10 50 0 28 -4 50 -10 50 -5
0 -10 -22 -10 -50z"/>
<path d="M560 775 c0 -8 13 -12 35 -11 19 0 35 6 35 11 0 6 -16 11 -35 11 -22
1 -35 -3 -35 -11z"/>
<path d="M746 781 c-4 -5 -2 -12 3 -15 5 -4 12 -2 15 3 4 5 2 12 -3 15 -5 4
-12 2 -15 -3z"/>
<path d="M864 779 c-6 -10 6 -15 36 -14 14 0 25 4 25 10 0 11 -54 14 -61 4z"/>
<path d="M1175 780 c-8 -13 8 -18 29 -10 19 6 19 7 -2 12 -12 4 -24 2 -27 -2z"/>
<path d="M1444 779 c-6 -10 -7 -10 24 -13 12 -2 21 2 19 7 -4 13 -35 18 -43 6z"/>
<path d="M686 755 c5 -21 3 -25 -15 -25 -12 0 -21 -4 -21 -9 0 -4 65 -8 145
-9 84 0 145 3 145 9 0 5 -22 9 -49 9 -40 0 -50 3 -54 20 -3 11 -13 20 -22 20
-9 0 -19 -9 -22 -20 -6 -22 -18 -26 -28 -10 -5 8 -12 7 -22 -2 -12 -10 -18 -9
-29 7 -8 10 -14 22 -14 27 0 4 -5 8 -10 8 -6 0 -8 -11 -4 -25z"/>
<path d="M1022 768 c-6 -6 -8 -17 -5 -24 3 -8 1 -14 -5 -14 -5 0 -12 9 -15 21
-6 24 -25 22 -41 -5 -9 -13 -7 -20 7 -30 21 -16 22 -26 2 -26 -8 0 -15 -4 -15
-10 0 -17 29 -11 47 10 12 14 30 20 59 20 47 0 59 15 37 45 -16 22 -55 29 -71
13z m28 -23 c0 -8 -4 -15 -10 -15 -5 0 -10 7 -10 15 0 8 5 15 10 15 6 0 10 -7
10 -15z m-60 -5 c0 -5 -4 -10 -10 -10 -5 0 -10 5 -10 10 0 6 5 10 10 10 6 0
10 -4 10 -10z m90 0 c0 -5 -4 -10 -10 -10 -5 0 -10 5 -10 10 0 6 5 10 10 10 6
0 10 -4 10 -10z"/>
<path d="M477 751 c-6 -24 -27 -28 -27 -6 0 8 -4 15 -10 15 -5 0 -10 -14 -10
-30 0 -18 -6 -33 -15 -36 -19 -8 -20 -24 -1 -24 8 0 22 10 30 22 l15 21 21
-24 21 -24 15 23 c13 18 26 22 65 22 27 0 49 5 49 10 0 6 -22 10 -48 10 -36 0
-54 -5 -67 -20 -10 -11 -20 -18 -22 -16 -3 2 5 14 17 26 25 25 22 44 -7 48
-14 2 -22 -4 -26 -17z m33 -11 c0 -5 -4 -10 -10 -10 -5 0 -10 5 -10 10 0 6 5
10 10 10 6 0 10 -4 10 -10z"/>
<path d="M1205 741 c-3 -6 -24 -11 -46 -11 -21 0 -39 -4 -39 -10 0 -17 90 -12
97 5 7 19 -2 31 -12 16z"/>
<path d="M1500 725 c0 -13 -8 -28 -17 -34 -10 -5 -14 -13 -10 -17 4 -5 16 -3
25 2 19 12 29 74 13 74 -6 0 -11 -11 -11 -25z"/>
<path d="M1390 679 c0 -5 5 -7 10 -4 6 3 10 8 10 11 0 2 -4 4 -10 4 -5 0 -10
-5 -10 -11z"/>
<path d="M1315 582 c4 -30 3 -31 -21 -21 -20 7 -25 6 -21 -3 5 -16 129 -18
134 -3 2 6 -16 10 -39 10 -34 0 -43 4 -43 17 0 9 -3 20 -7 23 -4 4 -5 -7 -3
-23z"/>
<path d="M515 590 c-3 -5 -1 -10 4 -10 6 0 11 5 11 10 0 6 -2 10 -4 10 -3 0
-8 -4 -11 -10z"/>
<path d="M611 591 c-9 -6 -10 -11 -2 -15 22 -14 11 -25 -15 -16 -20 8 -25 7
-22 -2 7 -19 100 -17 106 2 4 12 2 12 -8 3 -17 -16 -54 3 -46 23 6 16 6 17
-13 5z"/>
<path d="M693 575 c2 -30 26 -43 35 -17 2 7 -2 10 -11 6 -10 -4 -17 2 -20 18
-4 17 -5 15 -4 -7z"/>
<path d="M831 573 c-1 -28 3 -33 22 -33 16 0 23 6 23 20 0 23 -11 26 -22 8 -6
-9 -10 -5 -15 12 -6 23 -7 22 -8 -7z"/>
<path d="M893 575 c2 -27 6 -30 39 -32 45 -4 57 12 29 38 -21 20 -21 20 -22
-3 -1 -22 -1 -22 -9 2 -8 24 -8 24 -9 3 -1 -13 -5 -23 -10 -23 -5 0 -12 10
-14 23 -4 15 -5 12 -4 -8z"/>
<path d="M992 575 c1 -14 6 -25 10 -25 4 0 8 11 8 25 0 14 -4 25 -10 25 -5 0
-9 -11 -8 -25z"/>
<path d="M1163 575 c2 -28 5 -30 42 -30 30 0 41 4 43 18 2 10 -3 17 -12 17 -9
0 -16 -8 -16 -17 0 -13 -3 -14 -11 -6 -6 6 -17 9 -24 6 -8 -3 -15 5 -18 19 -4
17 -5 15 -4 -7z"/>
<path d="M1471 583 c-1 -25 -16 -31 -24 -10 -3 7 -6 4 -6 -6 -1 -10 -5 -15
-11 -12 -5 3 -10 2 -10 -2 0 -10 108 -16 121 -7 5 2 6 11 2 19 -6 17 -43 21
-43 5 0 -20 -19 -10 -23 13 l-4 22 -2 -22z"/>
<path d="M450 569 c0 -6 -6 -9 -13 -6 -7 2 -18 -6 -24 -19 -11 -23 -1 -34 12
-14 5 8 11 7 21 -1 8 -6 14 -10 15 -8 8 37 8 59 -1 59 -5 0 -10 -5 -10 -11z"/>
<path d="M1055 570 c-4 -6 -1 -17 5 -25 10 -12 9 -15 -3 -15 -9 0 -18 7 -20
15 -4 11 -4 10 -3 -2 1 -11 9 -18 21 -18 15 0 20 7 20 28 1 28 -9 35 -20 17z"/>
<path d="M505 562 c-38 -7 -37 -21 1 -18 20 1 39 6 41 12 4 11 -8 13 -42 6z"/>
<path d="M753 556 c5 -16 57 -20 57 -4 0 8 -13 13 -30 14 -18 1 -29 -3 -27
-10z"/>
<path d="M1101 563 c0 -6 -4 -20 -7 -30 -5 -14 -4 -15 5 -7 7 7 11 20 8 30 -3
11 -5 14 -6 7z"/>
<path d="M1120 561 c0 -6 5 -13 11 -17 8 -4 7 -9 -2 -16 -11 -8 -11 -9 1 -5
21 5 26 47 6 47 -9 0 -16 -4 -16 -9z"/>
<path d="M407 474 c-3 -4 1 -13 9 -21 8 -9 18 -12 22 -8 4 4 1 10 -6 12 -6 3
-10 9 -6 14 6 10 -9 12 -19 3z"/>
<path d="M462 460 c0 -14 2 -19 5 -12 2 6 2 18 0 25 -3 6 -5 1 -5 -13z"/>
<path d="M527 473 c-12 -12 -7 -30 8 -30 17 0 18 6 7 25 -5 7 -11 9 -15 5z"/>
<path d="M602 460 c0 -14 2 -19 5 -12 2 6 2 18 0 25 -3 6 -5 1 -5 -13z"/>
<path d="M640 463 c0 -11 6 -20 14 -20 16 0 14 29 -2 35 -7 2 -12 -5 -12 -15z"/>
<path d="M730 461 c0 -12 6 -21 16 -21 9 0 14 7 12 17 -5 25 -28 28 -28 4z"/>
<path d="M786 464 c-8 -21 -9 -20 13 -21 14 -1 17 3 14 18 -6 23 -19 25 -27 3z"/>
<path d="M840 461 c0 -9 8 -17 18 -18 10 -1 19 5 19 12 0 7 -9 16 -19 18 -12
4 -18 0 -18 -12z"/>
<path d="M900 460 c0 -9 6 -17 13 -17 7 0 14 8 14 17 1 9 -5 17 -13 17 -8 0
-14 -8 -14 -17z"/>
<path d="M990 460 c0 -11 5 -20 10 -20 6 0 10 9 10 20 0 11 -4 20 -10 20 -5 0
-10 -9 -10 -20z"/>
<path d="M1035 470 c-9 -14 3 -30 23 -30 15 0 15 2 2 10 -13 9 -13 11 0 20 13
8 13 10 -2 10 -9 0 -20 -4 -23 -10z"/>
<path d="M1097 460 c3 -11 7 -20 8 -20 1 0 5 9 8 20 3 12 0 20 -8 20 -8 0 -11
-8 -8 -20z"/>
<path d="M1202 460 c0 -14 2 -19 5 -12 2 6 2 18 0 25 -3 6 -5 1 -5 -13z"/>
<path d="M1234 469 c-9 -15 11 -33 30 -26 9 4 13 13 10 22 -7 17 -30 20 -40 4z"/>
<path d="M1297 474 c-6 -10 9 -42 16 -34 3 3 1 14 -3 24 -3 11 -9 15 -13 10z"/>
<path d="M1346 465 c-6 -17 17 -31 34 -20 8 5 8 11 -1 21 -15 18 -25 18 -33
-1z"/>
<path d="M1410 460 c0 -11 4 -20 9 -20 5 0 7 9 4 20 -3 11 -7 20 -9 20 -2 0
-4 -9 -4 -20z"/>
<path d="M1450 461 c0 -10 8 -17 20 -18 11 -1 20 4 20 11 0 8 -9 16 -20 19
-14 4 -20 0 -20 -12z"/>
<path d="M1517 473 c-14 -13 -6 -33 13 -33 11 0 20 5 20 11 0 6 -7 9 -15 5 -8
-3 -15 -1 -15 3 0 5 6 12 13 14 6 3 7 6 1 6 -6 1 -14 -2 -17 -6z"/>
<path d="M480 455 c0 -8 4 -15 10 -15 5 0 7 7 4 15 -4 8 -8 15 -10 15 -2 0 -4
-7 -4 -15z"/>
<path d="M570 455 c0 -8 5 -15 10 -15 6 0 10 7 10 15 0 8 -4 15 -10 15 -5 0
-10 -7 -10 -15z"/>
<path d="M1170 455 c0 -8 5 -15 10 -15 6 0 10 7 10 15 0 8 -4 15 -10 15 -5 0
-10 -7 -10 -15z"/>
</g>
</svg>
